<svg width="403" height="729" viewBox="0 0 403 729" fill="none" xmlns="http://www.w3.org/2000/svg">
<line y1="-1.5" x2="351.905" y2="-1.5" transform="matrix(0.780211 0.625517 -0.669588 0.742733 106.121 554.242)" stroke="#40A601" stroke-width="3"/>
<line y1="-1.5" x2="358.079" y2="-1.5" transform="matrix(0.780211 0.625517 -0.669588 0.742733 108.172 542.762)" stroke="#40A601" stroke-width="3"/>
<line y1="-1.5" x2="364.253" y2="-1.5" transform="matrix(0.780211 0.625517 -0.669588 0.742733 110.224 531.281)" stroke="#40A601" stroke-width="3"/>
<line y1="-1.5" x2="370.427" y2="-1.5" transform="matrix(0.780211 0.625517 -0.669588 0.742733 112.275 519.801)" stroke="#40A601" stroke-width="3"/>
<line y1="-1.5" x2="376.6" y2="-1.5" transform="matrix(0.780211 0.625517 -0.669588 0.742733 114.328 508.32)" stroke="#67B502" stroke-width="3"/>
<line y1="-1.5" x2="382.774" y2="-1.5" transform="matrix(0.780211 0.625517 -0.669588 0.742733 116.379 496.839)" stroke="#67B502" stroke-width="3"/>
<line y1="-1.5" x2="388.948" y2="-1.5" transform="matrix(0.780211 0.625517 -0.669588 0.742733 118.43 485.359)" stroke="#67B502" stroke-width="3"/>
<line y1="-1.5" x2="351.905" y2="-1.5" transform="matrix(0.780211 0.625517 0.669588 -0.742733 186.482 465.103)" stroke="#CBDD01" stroke-width="3"/>
<line y1="-1.5" x2="358.079" y2="-1.5" transform="matrix(0.780211 0.625517 0.669588 -0.742733 175.483 468.098)" stroke="#CBDD01" stroke-width="3"/>
<line y1="-1.5" x2="364.253" y2="-1.5" transform="matrix(0.780211 0.625517 0.669588 -0.742733 164.485 471.093)" stroke="#88C700" stroke-width="3"/>
<line y1="-1.5" x2="370.427" y2="-1.5" transform="matrix(0.780211 0.625517 0.669588 -0.742733 153.487 474.088)" stroke="#88C700" stroke-width="3"/>
<line y1="-1.5" x2="376.6" y2="-1.5" transform="matrix(0.780211 0.625517 0.669588 -0.742733 142.488 477.083)" stroke="#88C700" stroke-width="3"/>
<line y1="-1.5" x2="382.774" y2="-1.5" transform="matrix(0.780211 0.625517 0.669588 -0.742733 131.489 480.078)" stroke="#88C700" stroke-width="3"/>
<line y1="-1.5" x2="446.797" y2="-1.5" transform="matrix(0.780211 0.625517 -0.669588 0.742733 62.1445 331.559)" stroke="#40A601" stroke-width="3"/>
<line y1="-1.5" x2="454.635" y2="-1.5" transform="matrix(0.780211 0.625517 -0.669588 0.742733 62.897 319.037)" stroke="#40A601" stroke-width="3"/>
<line y1="-1.5" x2="462.474" y2="-1.5" transform="matrix(0.780211 0.625517 -0.669588 0.742733 63.6499 306.515)" stroke="#40A601" stroke-width="3"/>
<line y1="-1.5" x2="470.312" y2="-1.5" transform="matrix(0.780211 0.625517 -0.669588 0.742733 64.4028 293.993)" stroke="#40A601" stroke-width="3"/>
<line y1="-1.5" x2="478.151" y2="-1.5" transform="matrix(0.780211 0.625517 -0.669588 0.742733 65.1558 281.471)" stroke="#67B502" stroke-width="3"/>
<line y1="-1.5" x2="485.989" y2="-1.5" transform="matrix(0.780211 0.625517 -0.669588 0.742733 65.9087 268.949)" stroke="#67B502" stroke-width="3"/>
<line y1="-1.5" x2="493.828" y2="-1.5" transform="matrix(0.780211 0.625517 -0.669588 0.742733 66.6606 256.427)" stroke="#67B502" stroke-width="3"/>
<line y1="-1.5" x2="446.797" y2="-1.5" transform="matrix(0.780211 0.625517 0.669588 -0.742733 142.505 242.419)" stroke="#CBDD01" stroke-width="3"/>
<line y1="-1.5" x2="454.635" y2="-1.5" transform="matrix(0.780211 0.625517 0.669588 -0.742733 130.208 244.373)" stroke="#CBDD01" stroke-width="3"/>
<line y1="-1.5" x2="462.474" y2="-1.5" transform="matrix(0.780211 0.625517 0.669588 -0.742733 117.911 246.327)" stroke="#88C700" stroke-width="3"/>
<line y1="-1.5" x2="470.312" y2="-1.5" transform="matrix(0.780211 0.625517 0.669588 -0.742733 105.614 248.28)" stroke="#88C700" stroke-width="3"/>
<line y1="-1.5" x2="478.151" y2="-1.5" transform="matrix(0.780211 0.625517 0.669588 -0.742733 93.3164 250.234)" stroke="#88C700" stroke-width="3"/>
<line y1="-1.5" x2="485.989" y2="-1.5" transform="matrix(0.780211 0.625517 0.669588 -0.742733 81.019 252.188)" stroke="#88C700" stroke-width="3"/>
<line y1="-1.5" x2="476.768" y2="-1.5" transform="matrix(0.780211 0.625517 -0.669588 0.742733 39.1558 120.532)" stroke="#40A601" stroke-width="3"/>
<line y1="-1.5" x2="485.132" y2="-1.5" transform="matrix(0.780211 0.625517 -0.669588 0.742733 39.4985 107.681)" stroke="#40A601" stroke-width="3"/>
<line y1="-1.5" x2="493.497" y2="-1.5" transform="matrix(0.780211 0.625517 -0.669588 0.742733 39.8408 94.8306)" stroke="#40A601" stroke-width="3"/>
<line y1="-1.5" x2="501.861" y2="-1.5" transform="matrix(0.780211 0.625517 -0.669588 0.742733 40.1836 81.9798)" stroke="#40A601" stroke-width="3"/>
<line y1="-1.5" x2="510.225" y2="-1.5" transform="matrix(0.780211 0.625517 -0.669588 0.742733 40.5264 69.129)" stroke="#67B502" stroke-width="3"/>
<line y1="-1.5" x2="518.59" y2="-1.5" transform="matrix(0.780211 0.625517 -0.669588 0.742733 40.8687 56.2781)" stroke="#67B502" stroke-width="3"/>
<line y1="-1.5" x2="526.954" y2="-1.5" transform="matrix(0.780211 0.625517 -0.669588 0.742733 41.2109 43.4271)" stroke="#67B502" stroke-width="3"/>
<line y1="-1.5" x2="476.768" y2="-1.5" transform="matrix(0.780211 0.625517 0.669588 -0.742733 119.517 31.3924)" stroke="#CBDD01" stroke-width="3"/>
<line y1="-1.5" x2="485.132" y2="-1.5" transform="matrix(0.780211 0.625517 0.669588 -0.742733 106.81 33.0174)" stroke="#CBDD01" stroke-width="3"/>
<line y1="-1.5" x2="493.497" y2="-1.5" transform="matrix(0.780211 0.625517 0.669588 -0.742733 94.1021 34.6422)" stroke="#88C700" stroke-width="3"/>
<line y1="-1.5" x2="501.861" y2="-1.5" transform="matrix(0.780211 0.625517 0.669588 -0.742733 81.3945 36.267)" stroke="#88C700" stroke-width="3"/>
<line y1="-1.5" x2="510.225" y2="-1.5" transform="matrix(0.780211 0.625517 0.669588 -0.742733 68.6875 37.8921)" stroke="#88C700" stroke-width="3"/>
<line y1="-1.5" x2="518.59" y2="-1.5" transform="matrix(0.780211 0.625517 0.669588 -0.742733 55.979 39.5166)" stroke="#88C700" stroke-width="3"/>
</svg>
